replay
version=1
nRows=16
nColumns=40
inDegrees=no
endheader
time	/jointset/ground_pelvis/pelvis_tilt/value	/jointset/ground_pelvis/pelvis_list/value	/jointset/ground_pelvis/pelvis_rotation/value	/jointset/ground_pelvis/pelvis_tx/value	/jointset/ground_pelvis/pelvis_ty/value	/jointset/ground_pelvis/pelvis_tz/value	/jointset/hip_r/hip_flexion_r/value	/jointset/hip_r/hip_adduction_r/value	/jointset/hip_r/hip_rotation_r/value	/jointset/walker_knee_r/knee_angle_r/value	/jointset/patellofemoral_r/knee_angle_r_beta/value	/jointset/ankle_r/ankle_angle_r/value	/jointset/subtalar_r/subtalar_angle_r/value	/jointset/mtp_r/mtp_angle_r/value	/jointset/hip_l/hip_flexion_l/value	/jointset/hip_l/hip_adduction_l/value	/jointset/hip_l/hip_rotation_l/value	/jointset/walker_knee_l/knee_angle_l/value	/jointset/patellofemoral_l/knee_angle_l_beta/value	/jointset/ankle_l/ankle_angle_l/value	/jointset/subtalar_l/subtalar_angle_l/value	/jointset/mtp_l/mtp_angle_l/value	/jointset/back/lumbar_extension/value	/jointset/back/lumbar_bending/value	/jointset/back/lumbar_rotation/value	/jointset/acromial_r/arm_flex_r/value	/jointset/acromial_r/arm_add_r/value	/jointset/acromial_r/arm_rot_r/value	/jointset/elbow_r/elbow_flex_r/value	/jointset/radioulnar_r/pro_sup_r/value	/jointset/radius_hand_r/wrist_flex_r/value	/jointset/radius_hand_r/wrist_dev_r/value	/jointset/acromial_l/arm_flex_l/value	/jointset/acromial_l/arm_add_l/value	/jointset/acromial_l/arm_rot_l/value	/jointset/elbow_l/elbow_flex_l/value	/jointset/radioulnar_l/pro_sup_l/value	/jointset/radius_hand_l/wrist_flex_l/value	/jointset/radius_hand_l/wrist_dev_l/value
0.3	-0.1939871006	-0.1568116616	-0.3654255286	1.177551098	1.057169775	-0.10591625	0.2789818303	0.1824379174	0.2728095573	0.1444532498	0.1444532498	-0.2050802765	-0.1885493917	-9.5826665e-06	0.171546417	-0.1587233623	-0.2974236638	0.09875009433	0.09875009433	-0.1008823445	-0.1722731214	-2.940770558e-05	0.3618414955	1.038148929	-0.9322948623	-0.913868387	-1.25071423	-1.161993518	0.5266364225	0.1205984568	0.5356729612	-0.7874583079	-0.0630887481	0.7702434834	-1.104340251	1.768468696	0.1882904508	0.0003899114179	-5.921599296e-05
0.302777778	-0.1945482429	-0.1570982957	-0.3670673961	1.177568116	1.057216251	-0.1061365156	0.2790010852	0.1826447655	0.2730376377	0.144663757	0.144663757	-0.2055751223	-0.1893882003	-1.00352577e-05	0.1724253139	-0.1591242108	-0.2974377667	0.09909043569	0.09909043569	-0.1010557838	-0.1728145982	-3.102531793e-05	0.3626889789	1.041160051	-0.9347156686	-0.9154936045	-1.248882847	-1.163512456	0.5235215284	0.1185600126	0.5376791113	-0.7877501861	-0.06307351718	0.770856419	-1.104836454	1.768527131	0.1881132104	0.0004150905152	-2.789946947e-05
0.305555556	-0.1946205802	-0.1574182536	-0.3687165161	1.177612776	1.057295133	-0.1063363424	0.2783912304	0.1827468652	0.2734430863	0.1448017759	0.1448017759	-0.205948552	-0.1901214479	-1.158888357e-05	0.1726221924	-0.1593907975	-0.2976000823	0.09930003963	0.09930003963	-0.1006928388	-0.1731441533	-3.079478496e-05	0.3629248165	1.044014484	-0.9370911792	-0.9168153176	-1.247162989	-1.164513882	0.5204864056	0.1165521353	0.5392793119	-0.7880995229	-0.06305302654	0.7714221588	-1.10552871	1.768800247	0.1877426454	0.0004147017295	3.093807559e-05
0.308333333	-0.1943374094	-0.1577685649	-0.370444522	1.177678516	1.057397566	-0.1065053802	0.2773026255	0.1828149399	0.2740532266	0.144874025	0.144874025	-0.2061507511	-0.1907167536	-1.326325231e-05	0.1722703544	-0.1596042847	-0.2980147077	0.09937923688	0.09937923688	-0.1000666511	-0.173383925	-2.98263277e-05	0.3626488282	1.046765703	-0.9393452667	-0.9179412947	-1.245495833	-1.165124424	0.5175560363	0.1146032808	0.5404460549	-0.7885327121	-0.06299704287	0.7719196175	-1.106247949	1.769119308	0.1873732204	0.000406878167	8.853463212e-05
0.311111111	-0.1938324139	-0.1581447514	-0.3723221598	1.177758693	1.057514657	-0.1066335444	0.275886769	0.182918164	0.2748938196	0.1448879771	0.1448879771	-0.2061330965	-0.1911425775	-1.418160051e-05	0.1715047023	-0.1598443545	-0.2987830529	0.09932948841	0.09932948841	-0.0994476755	-0.173654481	-2.987929456e-05	0.3619623444	1.049466491	-0.9414035546	-0.918979807	-1.243823298	-1.165468589	0.5147553538	0.1127537726	0.5411412793	-0.7890847889	-0.06287612071	0.7723284771	-1.106827603	1.769318853	0.1871960637	0.0004094176945	0.000117691185
0.313888889	-0.193253366	-0.1585170585	-0.3743728799	1.177846657	1.057635866	-0.1067215556	0.2743358555	0.1830792025	0.2759259198	0.1448709115	0.1448709115	-0.2059104711	-0.1914208636	-1.412969041e-05	0.1705201054	-0.160143774	-0.2999015751	0.09918449574	0.09918449574	-0.0989788844	-0.1740037	-3.197150636e-05	0.3610522383	1.052150757	-0.9432848739	-0.9200265643	-1.242105586	-1.165700019	0.5121096529	0.1110149013	0.5414336975	-0.7897495745	-0.06269053233	0.7726620058	-1.107206252	1.769324003	0.187264847	0.0004283802222	0.0001117856687
0.316666667	-0.1927650766	-0.158822647	-0.3765604372	1.177935774	1.057748602	-0.1067839946	0.272894197	0.1832609977	0.2770283169	0.144876057	0.144876057	-0.2055806303	-0.1916435473	-1.353002649e-05	0.1695875644	-0.1604745729	-0.3012325766	0.09901849731	0.09901849731	-0.09863762283	-0.1743843556	-3.574674942e-05	0.3602139611	1.054828314	-0.9451268381	-0.9211534783	-1.240324934	-1.166016036	0.5096465715	0.1093475126	0.5415487618	-0.7904510622	-0.06247892963	0.7729770958	-1.107459197	1.769176809	0.1874544518	0.0004543773237	8.987848868e-05
0.319444444	-0.1925315065	-0.1589952959	-0.3788469714	1.1780194	1.057840301	-0.1068361452	0.2718082172	0.183423551	0.2780765949	0.1449586736	0.1449586736	-0.2052470219	-0.191907514	-1.269979606e-05	0.1689805112	-0.1608052248	-0.3026320796	0.09890694817	0.09890694817	-0.09839012087	-0.1747420598	-4.047052887e-05	0.3597465951	1.057508124	-0.9470722346	-0.9224195206	-1.238462902	-1.166622413	0.5073965093	0.1077004929	0.5417383685	-0.7910925185	-0.06228205088	0.7733334528	-1.107670876	1.768927176	0.1876277538	0.0004767287076	7.275484332e-05
0.322222222	-0.1926762459	-0.1589789801	-0.3811964436	1.178092403	1.057901531	-0.1068915628	0.2712702513	0.183528295	0.2789675993	0.1451648771	0.1451648771	-0.2050023646	-0.1922926317	-1.188520703e-05	0.1689144396	-0.161103143	-0.3039717815	0.09891288295	0.09891288295	-0.09820430558	-0.1750292975	-4.525530588e-05	0.3598881221	1.060194149	-0.9492439441	-0.9238570211	-1.236506061	-1.167688186	0.5053817496	0.1060269355	0.5422298038	-0.7915793515	-0.06213285311	0.7737814094	-1.107916577	1.768625709	0.1876645063	0.000486114624	7.834640664e-05
0.325	-0.1930380728	-0.1588008818	-0.3835752152	1.178160826	1.057944957	-0.1069521735	0.2710827386	0.1835396977	0.2797441048	0.1454733858	0.1454733858	-0.2048569982	-0.1927502522	-1.107124983e-05	0.1691932079	-0.1613229843	-0.3052258726	0.09901745848	0.09901745848	-0.09806011863	-0.175253005	-4.985563496e-05	0.3604407698	1.062848726	-0.9516261913	-0.9253796363	-1.234491819	-1.169079513	0.5035479374	0.104379953	0.5429525577	-0.791943403	-0.06200991162	0.7743021618	-1.10820376	1.768326761	0.1875683557	0.000484865195	0.0001030003815
0.327777778	-0.1933297529	-0.1585279531	-0.3859483231	1.178235827	1.057993033	-0.1070148963	0.2708740669	0.1834229983	0.2805119122	0.1458320065	0.1458320065	-0.2047846938	-0.1931746604	-1.030624036e-05	0.1694382938	-0.1614135516	-0.3064117827	0.09916632847	0.09916632847	-0.09794246178	-0.1754443565	-5.417130751e-05	0.3610153811	1.065415183	-0.9541446647	-0.9268556663	-1.232482273	-1.170524066	0.5018033257	0.1028525606	0.5437022503	-0.7922769657	-0.06186764155	0.7748459425	-1.10850988	1.768086258	0.1873984994	0.0004807888672	0.0001329560116
0.330555556	-0.1932655416	-0.1582298889	-0.3882791086	1.178328669	1.058068124	-0.1070767768	0.2702731335	0.1831429177	0.2813750146	0.1461878801	0.1461878801	-0.2047592582	-0.1934606509	-9.705143768e-06	0.169272839	-0.1613234786	-0.3075449621	0.09930599934	0.09930599934	-0.0978358496	-0.1756342288	-5.799219755e-05	0.3612255963	1.067836547	-0.9567274705	-0.9281607017	-1.230541187	-1.171747625	0.5000533317	0.1015239656	0.54428242	-0.7926702474	-0.06166057973	0.7753629044	-1.108812834	1.767959873	0.1872144956	0.0004821362096	0.0001538400225
0.333333333	-0.1926807028	-0.1579657104	-0.3905507814	1.178445505	1.058183835	-0.1071348031	0.2690539178	0.1826984632	0.2824021545	0.1465004337	0.1465004337	-0.2047524741	-0.1935494853	-9.411255777e-06	0.1684701371	-0.1610435796	-0.3086456662	0.09940307224	0.09940307224	-0.09772081212	-0.1758440303	-6.116035646e-05	0.3608363646	1.070095484	-0.9593181124	-0.9292357207	-1.228693218	-1.172588889	0.4982225289	0.1004404055	0.5445717827	-0.7931958225	-0.06136155401	0.7758233404	-1.109098695	1.767973031	0.1870638456	0.0004932823687	0.0001575075606
0.336111111	-0.191677818	-0.1577664001	-0.3927932402	1.178580924	1.058334423	-0.107185652	0.2673124346	0.1821668153	0.2835865709	0.1467572803	0.1467572803	-0.2047312976	-0.1934852176	-9.515257411e-06	0.1671350236	-0.1606599532	-0.3097484306	0.09946753401	0.09946753401	-0.09756915624	-0.176074595	-6.357731577e-05	0.3599454701	1.072264282	-0.9618908554	-0.930154022	-1.226873417	-1.173139482	0.4962813023	0.09960558788	0.5445963789	-0.7938953198	-0.06098382777	0.7762426691	-1.109370738	1.768083788	0.1869667926	0.00050916708	0.0001509436843
0.338888889	-0.1903948292	-0.1576576552	-0.3950447921	1.178727824	1.058511619	-0.1072258171	0.2651876934	0.1816358491	0.2849138423	0.1469508497	0.1469508497	-0.204661342	-0.1933252355	-9.783791536e-06	0.1654152983	-0.1602713068	-0.3108925105	0.09951450095	0.09951450095	-0.09735184149	-0.1763239345	-6.563095749e-05	0.3586904619	1.074427584	-0.9644190338	-0.9310023222	-1.225004822	-1.173521927	0.4942048518	0.0990361409	0.5443865658	-0.7948154904	-0.06054614635	0.7766424439	-1.109634271	1.768241157	0.1869397785	0.0005231343161	0.0001436931976
0.341666667	-0.1889701705	-0.1576600223	-0.3973434456	1.178878964	1.058707001	-0.107252223	0.2628223176	0.1811887907	0.2863684905	0.1470763792	0.1470763792	-0.2045105455	-0.1931265666	-9.743022159e-06	0.1634606578	-0.1599712255	-0.3121178738	0.09955754105	0.09955754105	-0.09704397979	-0.1765897429	-6.79805473e-05	0.3572091262	1.076667025	-0.9668766353	-0.9318625769	-1.223014283	-1.173854747	0.4919716235	0.09876730335	0.5439540476	-0.7960099845	-0.06006779435	0.7770435917	-1.109893495	1.768394758	0.1869973406	0.0005288889308	0.0001452213092
